<?xml version="1.0" encoding="utf-8" standalone="no"?>
<!DOCTYPE svg PUBLIC "-//W3C//DTD SVG 1.1//EN"
  "http://www.w3.org/Graphics/SVG/1.1/DTD/svg11.dtd">
<svg xmlns:xlink="http://www.w3.org/1999/xlink" width="720pt" height="360pt" viewBox="0 0 720 360" xmlns="http://www.w3.org/2000/svg" version="1.1">
 <metadata>
  <rdf:RDF xmlns:dc="http://purl.org/dc/elements/1.1/" xmlns:cc="http://creativecommons.org/ns#" xmlns:rdf="http://www.w3.org/1999/02/22-rdf-syntax-ns#">
   <cc:Work>
    <dc:type rdf:resource="http://purl.org/dc/dcmitype/StillImage"/>
    <dc:date>2025-06-02T20:40:12.981518</dc:date>
    <dc:format>image/svg+xml</dc:format>
    <dc:creator>
     <cc:Agent>
      <dc:title>Matplotlib v3.9.2, https://matplotlib.org/</dc:title>
     </cc:Agent>
    </dc:creator>
   </cc:Work>
  </rdf:RDF>
 </metadata>
 <defs>
  <style type="text/css">*{stroke-linejoin: round; stroke-linecap: butt}</style>
 </defs>
 <g id="figure_1">
  <g id="patch_1">
   <path d="M 0 360 
L 720 360 
L 720 0 
L 0 0 
z
" style="fill: #ffffff"/>
  </g>
  <g id="axes_1">
   <g id="patch_2">
    <path d="M 125.306882 143.876807 
C 121.327427 154.81027 119.093606 166.302283 118.687545 177.930344 
C 118.281484 189.558406 119.708222 201.178248 122.915303 212.362671 
L 229.5 181.8 
z
" style="fill: #ffb347; stroke: #000000; stroke-linejoin: miter"/>
   </g>
   <g id="patch_3">
    <path d="M 133.996549 212.749637 
C 137.606473 225.338937 143.418497 237.189665 151.162668 247.75138 
C 158.906838 258.313096 168.461368 267.419705 179.382472 274.648226 
C 190.303575 281.876746 202.419505 287.113503 215.167504 290.115258 
C 227.915503 293.117014 241.095094 293.836563 254.094115 292.240484 
C 267.093136 290.644405 279.707163 286.757799 291.350301 280.761189 
C 302.99344 274.764579 313.48259 266.752269 322.330553 257.096412 
C 331.178516 247.440556 338.246148 236.293002 343.205174 224.171531 
C 348.1642 212.050059 350.936633 199.145293 351.3937 186.05663 
C 351.850767 172.967967 349.98528 159.90124 345.883887 147.463371 
C 341.782494 135.025502 335.509694 123.41209 327.356844 113.162551 
C 319.203994 102.913012 309.299307 94.188532 298.102833 87.394344 
C 286.90636 80.600155 274.594177 75.843105 261.738158 73.344146 
C 248.882139 70.845188 235.68446 70.643621 222.758122 72.748807 
C 209.831785 74.853993 197.38007 79.232827 185.981333 85.68192 
C 174.582596 92.131013 164.416094 100.548948 155.954039 110.544728 
C 147.491983 120.540509 140.86745 131.956942 136.388133 144.263758 
L 240.581245 182.186966 
z
" style="fill: #aec6cf; stroke: #000000; stroke-linejoin: miter"/>
   </g>
   <g id="patch_4">
    <path d="M 262.764 70.92 
Q 371.772 98.64 480.78 126.36 
" style="fill: none; stroke: #808080; stroke-width: 2; stroke-linecap: round"/>
   </g>
   <g id="patch_5">
    <path d="M 262.764 292.68 
Q 371.772 264.96 480.78 237.24 
" style="fill: none; stroke: #808080; stroke-width: 2; stroke-linecap: round"/>
   </g>
   <g id="matplotlib.axis_1"/>
   <g id="matplotlib.axis_2"/>
  </g>
  <g id="axes_2">
   <g id="patch_6">
    <path d="M 456.403441 162.838403 
C 452.794377 172.754226 452.090236 183.497343 454.374149 193.799412 
C 456.658063 204.10148 461.836469 213.540468 469.297999 221.001999 
C 476.75953 228.46353 486.198517 233.641936 496.500586 235.92585 
C 506.802655 238.209764 517.545772 237.505624 527.461595 233.89656 
C 537.377417 230.287496 546.059736 223.921357 552.483507 215.549736 
C 558.907279 207.178115 562.809348 197.143961 563.729034 186.631918 
C 564.648719 176.119874 562.548345 165.560575 557.675882 156.20066 
C 552.80342 146.840746 545.358475 139.063654 536.220004 133.787554 
L 508.5 181.8 
z
" style="fill: url(#h6b8a01c955); stroke: #000000; stroke-linejoin: miter"/>
   </g>
   <g id="patch_7">
    <path d="M 536.220004 133.787554 
C 527.792687 128.922039 518.231032 126.360001 508.500004 126.36 
C 498.768975 126.359999 489.207321 128.922036 480.780002 133.78755 
L 508.5 181.8 
z
" style="fill: #90caf9; stroke: #000000; stroke-linejoin: miter"/>
   </g>
   <g id="patch_8">
    <path d="M 480.780002 133.78755 
C 475.179357 137.021084 470.187449 141.209792 466.030498 146.163853 
C 461.873547 151.117914 458.61531 156.761345 456.403442 162.838401 
L 508.5 181.8 
z
" style="fill: #42a5f5; stroke: #000000; stroke-linejoin: miter"/>
   </g>
   <g id="matplotlib.axis_3"/>
   <g id="matplotlib.axis_4"/>
  </g>
 </g>
 <defs>
  <pattern id="h6b8a01c955" patternUnits="userSpaceOnUse" x="0" y="0" width="72" height="72">
   <rect x="0" y="0" width="73" height="73" fill="#d3d3d3"/>
   <path d="M -36 36 
L 36 -36 
M -30 42 
L 42 -30 
M -24 48 
L 48 -24 
M -18 54 
L 54 -18 
M -12 60 
L 60 -12 
M -6 66 
L 66 -6 
M 0 72 
L 72 0 
M 6 78 
L 78 6 
M 12 84 
L 84 12 
M 18 90 
L 90 18 
M 24 96 
L 96 24 
M 30 102 
L 102 30 
M 36 108 
L 108 36 
" style="fill: #000000; stroke: #000000; stroke-width: 1.0; stroke-linecap: butt; stroke-linejoin: miter"/>
  </pattern>
 </defs>
</svg>
